<svg width="621" height="196" viewBox="0 0 621 196" fill="none" xmlns="http://www.w3.org/2000/svg">
<rect x="271" y="139" width="54" height="20" fill="#C9050F"/>
<rect x="12.3891" y="96.7851" width="42" height="23.6942" fill="#CA050E"/>
<path d="M10.9533 96.8048L33.7431 96.7671L23.1638 191.175L0.307982 191.213L10.9533 96.8048Z" fill="#CA050E"/>
<path d="M56.2288 96.8064L33.9153 96.7203L44.0193 191.185L66.4918 191.272L56.2288 96.8064Z" fill="#CA050E"/>
<rect x="12.3891" y="148.294" width="42" height="23.6942" fill="#CA050E"/>
<path d="M86.9849 96.5737L109 96.5738L94.3208 191.466L71 191.576L86.9849 96.5737Z" fill="#CA050E"/>
<rect x="86.9999" y="96.5763" width="45" height="23" fill="#CA050E"/>
<rect x="109" y="96.5763" width="23" height="95" fill="#CA050E"/>
<path d="M151.985 96.5737L174 96.5738L159.321 191.466L136 191.576L151.985 96.5737Z" fill="#CA050E"/>
<rect x="152" y="96.5763" width="45" height="23" fill="#CA050E"/>
<rect x="174" y="96.5763" width="23" height="95" fill="#CA050E"/>
<rect x="210" y="96" width="45" height="23" rx="4" fill="#CA050E"/>
<rect x="210" y="168" width="45" height="23" rx="4" fill="#CA050E"/>
<path d="M205 102C205 98.6863 207.686 96 211 96H228V191H211C207.686 191 205 188.314 205 185V102Z" fill="#CA050E"/>
<path d="M241 96H258C261.314 96 264 98.6863 264 102V185C264 188.314 261.314 191 258 191H241V96Z" fill="#CA050E"/>
<rect x="340.389" y="96.7851" width="42" height="23.6942" fill="#C8000A"/>
<path d="M338.953 96.8048L361.743 96.7671L351.164 191.175L328.308 191.213L338.953 96.8048Z" fill="#C8000A"/>
<path d="M384.229 96.8065L361.915 96.7203L372.019 191.185L394.492 191.272L384.229 96.8065Z" fill="#C8000A"/>
<rect x="340.389" y="148.294" width="42" height="23.6942" fill="#C8000A"/>
<path d="M413.985 96.5737L436 96.5738L421.321 191.466L398 191.576L413.985 96.5737Z" fill="#C8000A"/>
<rect x="414" y="96.5763" width="45" height="23" fill="#C8000A"/>
<rect x="436" y="96.5763" width="23" height="95" fill="#C8000A"/>
<path d="M477.985 96.5737L500 96.5738L485.321 191.466L462 191.576L477.985 96.5737Z" fill="#C8000A"/>
<rect x="478" y="96.5763" width="45" height="23" fill="#C8000A"/>
<rect x="500" y="96.5763" width="23" height="95" fill="#C8000A"/>
<rect x="535" y="96" width="45" height="23" rx="4" fill="#C8000A"/>
<path d="M564 168H579.611V191H541.611L564 168Z" fill="#C8000A"/>
<path d="M530 102C530 98.6863 532.686 96 536 96H553V146.182L530 170V102Z" fill="#C8000A"/>
<path d="M564 168L588.611 142.5V185C588.611 188.314 585.925 191 582.611 191H565.611L564 168Z" fill="#C8000A"/>
<path d="M565.611 96H582.611C585.925 96 588.611 98.6863 588.611 102V109.5L565.611 133V96Z" fill="#C8000A"/>
<path d="M440.5 14.9709L474.5 26.9709L372 89.9709L340 75.9709L440.5 14.9709Z" fill="#E8A735"/>
<path d="M513.5 14.9709L547.5 26.9709L445 89.9709L413 75.9709L513.5 14.9709Z" fill="#E8A735"/>
<path d="M586.5 14.9709L620.5 26.9709L518 89.9709L486 75.9709L586.5 14.9709Z" fill="#E8A735"/>
</svg>
