<svg width="50" height="53" viewBox="0 0 50 53" fill="none" xmlns="http://www.w3.org/2000/svg">
<mask id="path-1-inside-1_72_197" fill="white">
<path d="M29.6875 0V17.667H50V50C50 51.6569 48.6569 53 47 53H3C1.34315 53 2.416e-08 51.6569 0 50V3C4.50986e-07 1.34315 1.34315 6.44256e-08 3 0H29.6875Z"/>
</mask>
<path d="M29.6875 0V17.667H50V50C50 51.6569 48.6569 53 47 53H3C1.34315 53 2.416e-08 51.6569 0 50V3C4.50986e-07 1.34315 1.34315 6.44256e-08 3 0H29.6875Z" fill="white"/>
<path d="M29.6875 0H32.6875V-3H29.6875V0ZM29.6875 17.667H26.6875V20.667H29.6875V17.667ZM50 17.667H53V14.667H50V17.667ZM50 50H53H50ZM47 53V56V53ZM3 53V56V53ZM0 50H-3H0ZM0 3L-3 3V3H0ZM3 0V-3V0ZM29.6875 0H26.6875V17.667H29.6875H32.6875V0H29.6875ZM29.6875 17.667V20.667H50V17.667V14.667H29.6875V17.667ZM50 17.667H47V50H50H53V17.667H50ZM50 50H47V53V56C50.3137 56 53 53.3137 53 50H50ZM47 53V50H3V53V56H47V53ZM3 53V50H0H-3C-3 53.3137 -0.313708 56 3 56V53ZM0 50H3V3H0H-3V50H0ZM0 3L3 3V3V0V-3C-0.313709 -3 -3 -0.313708 -3 3L0 3ZM3 0V3H29.6875V0V-3H3V0Z" fill="black" mask="url(#path-1-inside-1_72_197)"/>
<path d="M29.6875 0L39.8438 8.83333L50 17.6667H29.6875V0Z" fill="black"/>
<line x1="14.0625" y1="32.3613" x2="35.9375" y2="32.3613" stroke="black" stroke-width="3"/>
<line x1="14.0625" y1="39.7222" x2="35.9375" y2="39.7222" stroke="black" stroke-width="3"/>
<line x1="14.0625" y1="25" x2="35.9375" y2="25" stroke="black" stroke-width="3"/>
</svg>
